<svg xmlns="http://www.w3.org/2000/svg" width="365" height="331" viewBox="0 0 365 331">
  <g id="Frame" transform="translate(-774 -187)">
    <g id="Ears" transform="translate(0 -8)">
      <g id="ear-right" transform="translate(1089 346)" fill="#fff">
        <path d="M 20 82.34241485595703 L 20 27.65758514404297 C 26.13435173034668 33.15449523925781 30 41.13428497314453 30 50 L 30 60 C 30 68.86571502685547 26.13435173034668 76.84550476074219 20 82.34241485595703 Z" stroke="none"/>
        <path d="M 0 0 C 27.6142635345459 0 50 22.38573455810547 50 50 L 50 60 C 50 87.61426544189453 27.6142635345459 110 0 110 L 0 0 Z" stroke="none" fill="#d5e8ef"/>
      </g>
      <g id="ear-left" transform="translate(774 346)" fill="#fff">
        <path d="M 30 82.34241485595703 C 23.86564826965332 76.84550476074219 20 68.86571502685547 20 60 L 20 50 C 20 41.13428497314453 23.86564826965332 33.15449523925781 30 27.65758514404297 L 30 82.34241485595703 Z" stroke="none"/>
        <path d="M 50 0 L 50 110 C 22.3857364654541 110 0 87.61426544189453 0 60 L 0 50 C 0 22.38573455810547 22.3857364654541 0 50 0 Z" stroke="none" fill="#d5e8ef"/>
      </g>
    </g>
    <rect id="Background" width="240" height="181" transform="translate(836 303)" fill="#353849"/>
    <g id="InnerShadow" transform="translate(806 280)" fill="none" stroke="#d5e8ef" stroke-linejoin="round" stroke-width="40">
      <rect width="300" height="238" rx="100" stroke="none"/>
      <rect x="20" y="20" width="260" height="198" rx="80" fill="none"/>
    </g>
    <g id="MainFrame" transform="translate(806 268)" fill="none" stroke="#f1f9fb" stroke-linejoin="round" stroke-width="40">
      <rect width="300" height="250" rx="100" stroke="none"/>
      <rect x="20" y="20" width="260" height="210" rx="80" fill="none"/>
    </g>
    <g id="TopNotch" transform="translate(1 -8)">
      <rect id="Rectangle_6" data-name="Rectangle 6" width="16" height="38" transform="translate(948 238)" fill="#d5e8ef"/>
      <circle id="Ellipse_1" data-name="Ellipse 1" cx="23" cy="23" r="23" transform="translate(933 195)" fill="#fff"/>
    </g>
  </g>
</svg>
